<svg width="221.985" height="56" viewBox="0 0 221.985 56" fill="none" xmlns="http://www.w3.org/2000/svg"><path d="M16.583 5.77A92.167 92.167 0 0 1 12.157 0.03a0.097 0.097 0 0 0 -0.141 0 92.167 92.167 0 0 1 -4.426 5.74C-11.059 29.555 10.527 45.607 10.527 45.607l0.181 0.121c0.161 2.476 0.563 6.041 0.563 6.041h1.61s0.402 -3.544 0.563 -6.042l0.181 -0.141c0.02 0.02 21.607 -16.031 2.957 -39.817m-4.507 39.495s-0.966 -0.826 -1.227 -1.248v-0.04l1.167 -25.9c0 -0.08 0.121 -0.08 0.121 0l1.167 25.9v0.04c-0.261 0.423 -1.227 1.248 -1.227 1.248" fill="#00ED64"/><path d="m52.474 39.802 -8.995 -21.813 -0.02 -0.061h-6.999v1.466h1.129c0.343 0 0.665 0.141 0.908 0.381 0.241 0.241 0.363 0.562 0.363 0.904l-0.202 21.954c0 0.682 -0.565 1.245 -1.251 1.266l-1.149 0.02v1.447h6.817v-1.447l-0.706 -0.02a1.283 1.283 0 0 1 -1.251 -1.266V21.945l9.802 23.42a0.898 0.898 0 0 0 0.827 0.562 0.898 0.898 0 0 0 0.827 -0.562l9.581 -22.898 0.141 20.166c0 0.703 -0.565 1.266 -1.27 1.286h-0.726v1.447h7.986v-1.447h-1.09c-0.686 0 -1.251 -0.582 -1.27 -1.266l-0.061 -21.954c0 -0.703 0.565 -1.266 1.251 -1.286l1.17 -0.02v-1.464h-6.817z" fill="#00ED64"/><path d="M115.197 43.538a1.202 1.202 0 0 1 -0.344 -0.883v-10.754c0 -2.046 -0.607 -3.652 -1.82 -4.795 -1.193 -1.143 -2.851 -1.725 -4.914 -1.725 -2.892 0 -5.176 1.163 -6.775 3.451 -0.02 0.04 -0.08 0.061 -0.141 0.061s-0.101 -0.041 -0.101 -0.1l-0.748 -2.869h-1.254l-3.214 1.827v1.003h0.829c0.384 0 0.708 0.1 0.93 0.301s0.344 0.502 0.344 0.923v12.659c0 0.362 -0.121 0.663 -0.344 0.883a1.225 1.225 0 0 1 -0.89 0.341h-0.808v1.464h7.401v-1.464h-0.808c-0.364 0 -0.667 -0.12 -0.89 -0.341a1.202 1.202 0 0 1 -0.344 -0.883v-8.386c0 -1.063 0.243 -2.127 0.687 -3.17a6.37 6.37 0 0 1 2.063 -2.548c0.91 -0.663 2.002 -0.983 3.256 -0.983 1.415 0 2.487 0.441 3.155 1.324s1.011 2.026 1.011 3.39v10.352c0 0.362 -0.121 0.663 -0.344 0.883a1.225 1.225 0 0 1 -0.89 0.341H109.433v1.464h7.401v-1.464h-0.808c-0.303 0.04 -0.587 -0.08 -0.829 -0.301" fill="#00ED64"/><path d="M182.814 19.582c-2.045 -1.09 -4.332 -1.654 -6.799 -1.654h-9.627v1.472h0.943c0.36 0 0.681 0.141 1.003 0.464 0.301 0.302 0.461 0.645 0.461 1.009v21.707c0 0.363 -0.16 0.706 -0.461 1.009s-0.642 0.464 -1.003 0.464h-0.943v1.471h9.627c2.467 0 4.753 -0.565 6.799 -1.654s3.71 -2.703 4.914 -4.761 1.825 -4.539 1.825 -7.364 -0.622 -5.285 -1.825 -7.363c-1.224 -2.098 -2.869 -3.712 -4.914 -4.801m2.868 12.124c0 2.582 -0.461 4.761 -1.364 6.516s-2.106 3.066 -3.59 3.913 -3.129 1.27 -4.894 1.27h-1.946c-0.36 0 -0.681 -0.141 -1.003 -0.464 -0.301 -0.302 -0.461 -0.645 -0.461 -1.009V21.458c0 -0.363 0.14 -0.686 0.461 -1.009 0.301 -0.302 0.642 -0.464 1.003 -0.464h1.946c1.765 0 3.41 0.423 4.894 1.27s2.688 2.158 3.59 3.914 1.364 3.954 1.364 6.536" fill="#00ED64"/><path d="M212.31 33.179c-0.89 -1.029 -2.609 -1.896 -4.629 -2.36 2.789 -1.392 4.224 -3.348 4.224 -5.871 0 -1.372 -0.363 -2.603 -1.092 -3.652 -0.727 -1.049 -1.758 -1.896 -3.072 -2.481s-2.852 -0.888 -4.591 -0.888h-10.898v1.472h0.869c0.364 0 0.687 0.141 1.01 0.464 0.303 0.302 0.465 0.645 0.465 1.009v21.707c0 0.363 -0.162 0.706 -0.465 1.009 -0.303 0.302 -0.647 0.464 -1.01 0.464h-0.95v1.472h11.829c1.799 0 3.477 -0.302 4.993 -0.908s2.73 -1.492 3.599 -2.662c0.888 -1.17 1.333 -2.603 1.333 -4.257 -0.02 -1.776 -0.546 -3.289 -1.617 -4.518m-13.567 9.784c-0.303 -0.302 -0.465 -0.645 -0.465 -1.009v-9.744h5.622q2.97 0 4.549 1.513 1.577 1.513 1.577 3.934c0 0.968 -0.244 1.917 -0.687 2.784 -0.465 0.888 -1.154 1.594 -2.082 2.138 -0.91 0.545 -2.043 0.827 -3.356 0.827h-4.146c-0.364 0.02 -0.687 -0.141 -1.01 -0.444m-0.444 -12.83V21.478c0 -0.363 0.141 -0.686 0.465 -1.009 0.303 -0.302 0.647 -0.464 1.011 -0.464h2.669c1.919 0 3.335 0.484 4.226 1.412 0.888 0.948 1.333 2.158 1.333 3.652 0 1.533 -0.425 2.764 -1.253 3.691 -0.829 0.908 -2.082 1.372 -3.74 1.372z" fill="#00ED64"/><path d="M87.022 26.668c-1.545 -0.845 -3.27 -1.287 -5.137 -1.287s-3.612 0.422 -5.137 1.287c-1.545 0.845 -2.768 2.071 -3.671 3.619s-1.364 3.358 -1.364 5.368 0.462 3.82 1.364 5.368 2.127 2.774 3.671 3.619 3.27 1.287 5.137 1.287 3.612 -0.422 5.137 -1.287c1.545 -0.845 2.768 -2.071 3.671 -3.619s1.364 -3.358 1.364 -5.368 -0.462 -3.82 -1.364 -5.368q-1.354 -2.322 -3.671 -3.619m1.484 8.987c0 2.473 -0.602 4.483 -1.806 5.931 -1.184 1.448 -2.809 2.191 -4.815 2.191s-3.632 -0.744 -4.815 -2.191c-1.204 -1.448 -1.806 -3.458 -1.806 -5.931s0.602 -4.483 1.806 -5.931c1.184 -1.448 2.809 -2.191 4.815 -2.191s3.632 0.744 4.815 2.191c1.204 1.468 1.806 3.458 1.806 5.931" fill="#00ED64"/><path d="M158.129 26.668c-1.545 -0.845 -3.27 -1.287 -5.137 -1.287s-3.612 0.422 -5.137 1.287c-1.545 0.845 -2.768 2.071 -3.671 3.619s-1.364 3.358 -1.364 5.368 0.462 3.82 1.364 5.368 2.127 2.774 3.671 3.619 3.27 1.287 5.137 1.287 3.612 -0.422 5.137 -1.287c1.545 -0.845 2.768 -2.071 3.671 -3.619s1.365 -3.358 1.365 -5.368 -0.462 -3.82 -1.364 -5.368 -2.147 -2.754 -3.671 -3.619m1.484 8.987c0 2.473 -0.602 4.483 -1.806 5.931 -1.184 1.448 -2.809 2.191 -4.815 2.191s-3.632 -0.744 -4.815 -2.191c-1.204 -1.448 -1.806 -3.458 -1.806 -5.931 0 -2.493 0.602 -4.483 1.806 -5.931 1.184 -1.448 2.809 -2.191 4.815 -2.191s3.632 0.744 4.815 2.191c1.184 1.468 1.806 3.458 1.806 5.931" fill="#00ED64"/><path d="M129.452 25.381q-2.424 0 -4.425 1.03c-1.333 0.687 -2.385 1.616 -3.132 2.807a7.117 7.117 0 0 0 -1.132 3.878c0 1.252 0.282 2.403 0.869 3.433a7.817 7.817 0 0 0 2.304 2.505l-2.89 3.919a1.583 1.583 0 0 0 1.273 2.525h0.828c-0.808 0.545 -1.455 1.191 -1.899 1.959 -0.525 0.869 -0.787 1.777 -0.787 2.707 0 1.737 0.768 3.171 2.283 4.242 1.496 1.071 3.597 1.616 6.244 1.616 1.839 0 3.597 -0.303 5.193 -0.889 1.617 -0.586 2.929 -1.454 3.9 -2.585 0.99 -1.13 1.496 -2.505 1.496 -4.08 0 -1.655 -0.607 -2.828 -2.021 -3.958 -1.212 -0.95 -3.111 -1.454 -5.476 -1.454h-8.083c-0.02 0 -0.041 -0.02 -0.041 -0.02s-0.02 -0.041 0 -0.061l2.101 -2.828a7.467 7.467 0 0 0 1.556 0.525c0.485 0.101 1.03 0.141 1.637 0.141 1.697 0 3.233 -0.343 4.566 -1.03s2.404 -1.616 3.172 -2.807a7 7 0 0 0 1.151 -3.878c0 -1.494 -0.727 -4.221 -2.708 -5.615 0 -0.02 0.02 -0.02 0.02 -0.02l4.346 0.484v-2h-6.951q-1.637 -0.546 -3.395 -0.546m2.424 12.623a5.25 5.25 0 0 1 -2.424 0.626c-1.353 0 -2.546 -0.484 -3.557 -1.434s-1.515 -2.343 -1.515 -4.119 0.505 -3.171 1.515 -4.121 2.203 -1.434 3.557 -1.434c0.848 0 1.657 0.202 2.424 0.626 0.768 0.404 1.394 1.03 1.899 1.858 0.485 0.828 0.748 1.858 0.748 3.071 0 1.232 -0.243 2.262 -0.748 3.069 -0.485 0.828 -1.132 1.454 -1.899 1.858m-5.476 7.453h5.476c1.515 0 2.485 0.303 3.132 0.95s0.969 1.514 0.969 2.525c0 1.475 -0.586 2.686 -1.758 3.594s-2.749 1.373 -4.688 1.373c-1.697 0 -3.111 -0.384 -4.143 -1.111s-1.556 -1.837 -1.556 -3.251c0 -0.889 0.243 -1.717 0.728 -2.444a4.632 4.632 0 0 1 1.839 -1.636" fill="#00ED64"/><path d="M218.027 45.188a2.567 2.567 0 0 1 -0.939 -0.912c-0.219 -0.397 -0.341 -0.813 -0.341 -1.269s0.121 -0.892 0.341 -1.269c0.219 -0.397 0.54 -0.694 0.939 -0.912 0.401 -0.218 0.84 -0.337 1.339 -0.337s0.939 0.119 1.339 0.337 0.699 0.535 0.939 0.912c0.219 0.397 0.341 0.813 0.341 1.269s-0.121 0.892 -0.341 1.269c-0.219 0.397 -0.54 0.694 -0.939 0.912 -0.401 0.218 -0.84 0.337 -1.339 0.337 -0.479 0 -0.939 -0.119 -1.339 -0.337m2.459 -0.297c0.338 -0.178 0.58 -0.456 0.779 -0.773a2.38 2.38 0 0 0 0.28 -1.13c0 -0.416 -0.1 -0.793 -0.28 -1.13a1.867 1.867 0 0 0 -0.779 -0.773c-0.341 -0.178 -0.701 -0.278 -1.12 -0.278s-0.779 0.099 -1.12 0.278c-0.338 0.178 -0.58 0.456 -0.779 0.773a2.38 2.38 0 0 0 -0.28 1.13c0 0.416 0.1 0.793 0.28 1.13a1.843 1.843 0 0 0 0.779 0.773c0.341 0.178 0.701 0.278 1.12 0.278s0.799 -0.099 1.12 -0.278m-2.199 -0.694v-0.178l0.041 -0.02h0.121a0.152 0.152 0 0 0 0.099 -0.04c0.041 -0.04 0.041 -0.059 0.041 -0.099v-1.843a0.152 0.152 0 0 0 -0.041 -0.099c-0.041 -0.04 -0.061 -0.04 -0.099 -0.04h-0.121l-0.041 -0.02v-0.178l0.041 -0.02h1.039c0.3 0 0.519 0.059 0.699 0.198a0.653 0.653 0 0 1 0.26 0.555c0 0.178 -0.058 0.357 -0.199 0.476a0.793 0.793 0 0 1 -0.499 0.238l0.239 0.079 0.46 0.734c0.041 0.059 0.08 0.079 0.141 0.079h0.119l0.02 0.02v0.178l-0.02 0.02h-0.618l-0.041 -0.02 -0.64 -1.071h-0.159v0.714c0 0.04 0.02 0.079 0.041 0.099 0.041 0.04 0.061 0.04 0.099 0.04h0.121l0.041 0.02v0.178l-0.041 0.02h-1.059zm1.02 -1.289c0.161 0 0.3 -0.04 0.38 -0.139 0.078 -0.079 0.139 -0.218 0.139 -0.377s-0.041 -0.278 -0.119 -0.377c-0.08 -0.099 -0.202 -0.139 -0.341 -0.139h-0.08a0.152 0.152 0 0 0 -0.099 0.04c-0.041 0.04 -0.041 0.059 -0.041 0.099v0.892z" fill="#00ED64"/></svg>